<svg width="20" height="20" viewBox="0 0 20 20" fill="none" xmlns="http://www.w3.org/2000/svg">
<path d="M9.43991 0.72097C9.43991 0.72097 6.94057 2.996 5.72095 4.13352V16.0474L7.36714 19.2737H11.6208L13.279 16.0414V4.43993C12.0193 3.20028 9.43991 0.72097 9.43991 0.72097Z" fill="#B54D0A"/>
<path d="M9.43991 0.72097C9.43991 0.72097 6.94057 2.996 5.72095 4.13352V16.0474L6.80239 18.1562L7.56541 17.0988L8.71294 18.9617L11.0921 15.2724V5.49133L9.43991 0.72097Z" fill="#F5B31F"/>
<path d="M9.43991 0.72097C9.43991 0.72097 6.94057 2.996 5.72095 4.13352V16.0474L6.80239 18.1562L7.56541 17.0988L7.72162 15.0921L7.79371 6.19427L11.0921 5.49133L9.43991 0.72097Z" fill="#F7CD3D"/>
<path d="M9.43988 0.72097L11.0921 5.49133L13.279 4.43993C12.0193 3.20028 9.43988 0.72097 9.43988 0.72097Z" fill="#E59211"/>
<path d="M11.0921 8.06492L7.74562 12.6685V12.8908L11.0921 8.57344V8.06492Z" fill="#E59211"/>
<path d="M8.71291 18.9677L7.56538 17.0988L6.80237 18.1562L5.91919 16.4499L5.99729 8.67558L6.80237 18.1562L7.11478 11.4993L7.56538 17.0988L7.72159 15.0981V14.9479L11.0921 10.0416V15.2724L8.71291 18.9677Z" fill="#E59211"/>
<path d="M5.72095 4.13352L9.43991 0.72097L8.14818 4.10348L8.62282 4.00735L7.73363 4.95061L8.22629 4.83045L7.92589 5.8398L10.7316 5.28706L10.4221 3.55675L11.0921 5.49133L9.92055 5.71964L8.63483 7.57611L9.54204 5.81576L7.79371 6.19427L7.72161 15.1402L7.50194 6.6992C6.85632 6.89124 6.84915 7.1715 6.73029 8.08078C6.67021 7.16156 6.52602 6.84313 5.8351 6.69293C6.52001 6.54273 6.55606 6.35048 6.71227 5.49133C6.85973 6.54715 7.11143 6.47375 7.50147 6.68108L7.48129 5.90588L5.72095 4.13352Z" fill="#FBF0C1"/>
<path d="M11.1882 3.9713C11.4105 4.2657 11.5307 4.51803 11.5968 4.74033C11.6448 4.55408 11.8671 4.13352 11.9993 3.9713C11.9371 3.89524 11.777 3.65288 11.5848 3.21429C11.5007 3.53873 11.3324 3.73699 11.1882 3.9713Z" fill="#FBF0C1"/>
<path d="M11.092 10.526V15.2724L8.5206 19.2741H8.38843L10.7496 15.0801L11.092 5.49132V8.4052V10.526Z" fill="#101010"/>
</svg>
