<svg width="32" height="32" viewBox="0 0 32 32" fill="none" xmlns="http://www.w3.org/2000/svg">
<g clip-path="url(#clip0_32_284)">
<path d="M16 32C24.8366 32 32 24.8366 32 16C32 7.16344 24.8366 0 16 0C7.16344 0 0 7.16344 0 16C0 24.8366 7.16344 32 16 32Z" fill="#0D0B09"/>
<path d="M9 7.42991C9 7.11891 9.12913 6.82188 9.35656 6.60976C10.3096 5.72086 11.7596 4.3904 12.9685 3.28461C13.5736 2.73119 14.1193 2.23314 14.5137 1.87345C14.7109 1.6936 14.8704 1.54832 14.9805 1.44798C15.0356 1.39781 15.0783 1.35887 15.1073 1.33247C15.1218 1.31927 15.1329 1.3092 15.1403 1.30243C15.144 1.29904 15.1469 1.29646 15.1487 1.29474C15.1497 1.29388 15.1504 1.29324 15.1509 1.29281C15.1511 1.29259 15.1513 1.29242 15.1514 1.29231C15.1515 1.29226 15.1515 1.29221 15.1516 1.29219C15.1516 1.29216 15.1516 1.29214 15.9065 2.1215L15.1516 1.29213C15.5882 0.894742 16.2581 0.903845 16.6837 1.31294L15.9065 2.1215C16.6715 1.32565 16.6835 1.31316 16.6838 1.31299C16.6838 1.31302 16.6838 1.31306 16.6839 1.31312C16.684 1.31324 16.6842 1.31343 16.6845 1.31367C16.6849 1.31414 16.6857 1.31485 16.6867 1.31579C16.6886 1.31766 16.6915 1.32044 16.6953 1.32413C16.703 1.33151 16.7144 1.34249 16.7294 1.35688C16.7593 1.38565 16.8034 1.42807 16.8603 1.48273C16.9739 1.59207 17.1385 1.75038 17.342 1.94637C17.7491 2.33834 18.3123 2.88108 18.9368 3.48416C20.1847 4.68925 21.6812 6.13888 22.6651 7.1072C22.8794 7.31802 23 7.60599 23 7.90654V25.9533C23 26.1313 22.9576 26.3068 22.8764 26.4652L20.2969 31.4932C20.1049 31.8674 19.7197 32.1028 19.2991 32.1028H12.6822C12.2607 32.1028 11.8748 31.8665 11.6833 31.491L9.12252 26.4723C9.04198 26.3145 9 26.1398 9 25.9626V7.42991ZM10.1215 25.9626L12.6822 30.9813H19.2991L21.8785 25.9533V7.90654C19.919 5.97819 15.9065 2.1215 15.9065 2.1215C15.9065 2.1215 12.0187 5.66044 10.1215 7.42991V25.9626Z" fill="#101010"/>
<path d="M15.9066 2.12151C15.9066 2.12151 12.0188 5.66045 10.1216 7.42992V25.9626L12.6823 30.9813H19.2992L21.8786 25.9533V7.90655C19.9191 5.9782 15.9066 2.12151 15.9066 2.12151Z" fill="#B54D0A"/>
<path d="M15.9066 2.12151C15.9066 2.12151 12.0188 5.66045 10.1216 7.42992V25.9626L11.8038 29.243L12.9907 27.5981L14.7758 30.4959L18.4767 24.757V9.54207L15.9066 2.12151Z" fill="#F5B31F"/>
<path d="M15.9066 2.12151C15.9066 2.12151 12.0188 5.66045 10.1216 7.42992V25.9626L11.8038 29.243L12.9907 27.5981L13.2337 24.4766L13.3459 10.6355L18.4767 9.54207L15.9066 2.12151Z" fill="#F7CD3D"/>
<path d="M15.9066 2.12151L18.4767 9.54207L21.8785 7.90655C19.919 5.9782 15.9066 2.12151 15.9066 2.12151Z" fill="#E59211"/>
<path d="M18.4767 13.5454L13.2711 20.7066V21.0524L18.4767 14.3365V13.5454Z" fill="#E59211"/>
<path d="M14.7757 30.5053L12.9907 27.5981L11.8038 29.243L10.4299 26.5888L10.5514 14.4953L11.8038 29.243L12.2897 18.8879L12.9907 27.5981L13.2337 24.486V24.2523L18.4767 16.6202V24.757L14.7757 30.5053Z" fill="#E59211"/>
<path d="M10.1216 7.42992L15.9066 2.12151L13.8973 7.38319L14.6356 7.23365L13.2524 8.70094L14.0188 8.51403L13.5515 10.0841L17.916 9.22431L17.4344 6.53272L18.4767 9.54207L16.6543 9.89721L14.6543 12.7851L16.0655 10.0467L13.3459 10.6355L13.2337 24.5514L12.892 11.421C11.8877 11.7197 11.8766 12.1557 11.6917 13.5701C11.5982 12.1402 11.3739 11.6449 10.2992 11.4112C11.3646 11.1776 11.4206 10.8785 11.6636 9.54207C11.893 11.1845 12.2845 11.0703 12.8913 11.3928L12.8599 10.1869L10.1216 7.42992Z" fill="#FBF0C1"/>
<path d="M18.6263 7.17758C18.972 7.63552 19.159 8.02805 19.2618 8.37384C19.3365 8.08412 19.6823 7.42992 19.8879 7.17758C19.7911 7.05926 19.5421 6.68225 19.2431 6.00001C19.1122 6.50468 18.8506 6.81309 18.6263 7.17758Z" fill="#FBF0C1"/>
<path d="M18.4766 17.3738V24.757L14.4766 30.9819H14.271L17.9439 24.4579L18.4766 9.54205V14.0748V17.3738Z" fill="#101010"/>
</g>
<defs>
<clipPath id="clip0_32_284">
<rect width="32" height="32" fill="white"/>
</clipPath>
</defs>
</svg>
