<svg width="1760" height="1684" viewBox="0 0 1760 1684" fill="none" xmlns="http://www.w3.org/2000/svg">
<path d="M1441.6 1626.09C1441.6 1630.79 1438.32 1634.86 1433.72 1635.86L1357.72 1652.36C1357.28 1652.46 1356.83 1652.52 1356.38 1652.56L1094.88 1673.06C1094.62 1673.08 1094.36 1673.09 1094.1 1673.09H620.1C619.405 1673.09 618.712 1673.02 618.032 1672.87L443.032 1635.87C442.139 1635.68 441.276 1635.37 440.467 1634.95L331.467 1577.95C328.583 1576.44 326.614 1573.63 326.187 1570.4C325.76 1567.18 326.929 1563.94 329.32 1561.74L541.82 1365.74C543.667 1364.03 546.088 1363.09 548.6 1363.09H1262.1C1264.65 1363.09 1267.1 1364.06 1268.95 1365.81L1438.45 1525.31C1440.46 1527.2 1441.6 1529.83 1441.6 1532.59V1626.09Z" fill="#101010" stroke="#101010" stroke-width="20" stroke-linejoin="round"/>
<path d="M530.6 360.088C530.6 343.45 537.509 327.559 549.677 316.211C600.665 268.655 678.238 197.475 742.918 138.315C775.288 108.707 804.483 82.0615 825.585 62.818C836.136 53.196 844.665 45.4233 850.557 40.0553C853.504 37.3713 855.791 35.2882 857.343 33.8756C858.118 33.1696 858.709 32.6306 859.107 32.2682C859.306 32.0869 859.457 31.949 859.558 31.857C859.609 31.8112 859.647 31.7768 859.673 31.7535C859.685 31.7419 859.695 31.7331 859.702 31.7271C859.705 31.7243 859.707 31.7218 859.709 31.7203C859.71 31.7187 859.712 31.7178 900.1 76.0885L859.712 31.7174C883.068 10.4571 918.908 10.9441 941.678 32.8307L900.1 76.0885C941.025 33.5107 941.67 32.8425 941.681 32.8336C941.683 32.8352 941.686 32.8373 941.689 32.8404C941.696 32.8469 941.705 32.8571 941.719 32.8697C941.745 32.8951 941.785 32.9329 941.837 32.983C941.941 33.0832 942.096 33.2321 942.302 33.4293C942.712 33.8242 943.323 34.4116 944.124 35.1812C945.724 36.7204 948.085 38.9901 951.125 41.9146C957.206 47.7641 966.008 56.2339 976.897 66.7193C998.675 87.6894 1028.81 116.726 1062.22 148.991C1128.98 213.463 1209.04 291.018 1261.69 342.824C1273.15 354.102 1279.6 369.509 1279.6 385.588V1351.09C1279.6 1360.61 1277.33 1370 1272.99 1378.48L1134.99 1647.48C1124.71 1667.5 1104.1 1680.09 1081.6 1680.09H727.6C705.05 1680.09 684.404 1667.44 674.155 1647.36L537.155 1378.86C532.846 1370.41 530.6 1361.07 530.6 1351.59V360.088ZM590.6 1351.59L727.6 1620.09H1081.6L1219.6 1351.09V385.588C1114.77 282.422 900.1 76.0885 900.1 76.0885C900.1 76.0885 692.1 265.422 590.6 360.088V1351.59Z" fill="#101010"/>
<path d="M900.1 76.0885C900.1 76.0885 692.1 265.422 590.6 360.089V1351.59L727.6 1620.09H1081.6L1219.6 1351.09V385.589C1114.77 282.422 900.1 76.0885 900.1 76.0885Z" fill="#B54D0A"/>
<path d="M900.1 76.0885C900.1 76.0885 692.1 265.422 590.6 360.089V1351.59L680.6 1527.09L744.1 1439.09L839.6 1594.12L1037.6 1287.09V473.089L900.1 76.0885Z" fill="#F5B31F"/>
<path d="M900.1 76.0885C900.1 76.0885 692.1 265.422 590.6 360.089V1351.59L680.6 1527.09L744.1 1439.09L757.1 1272.09L763.1 531.589L1037.6 473.089L900.1 76.0885Z" fill="#F7CD3D"/>
<path d="M900.1 76.0885L1037.6 473.089L1219.6 385.589C1114.77 282.422 900.1 76.0885 900.1 76.0885Z" fill="#E59211"/>
<path d="M1037.6 687.268L759.1 1070.39V1088.89L1037.6 729.589V687.268Z" fill="#E59211"/>
<path d="M839.6 1594.62L744.1 1439.09L680.6 1527.09L607.1 1385.09L613.6 738.089L680.6 1527.09L706.6 973.089L744.1 1439.09L757.1 1272.59V1260.09L1037.6 851.768V1287.09L839.6 1594.62Z" fill="#E59211"/>
<path d="M590.6 360.089L900.1 76.0885L792.6 357.589L832.1 349.589L758.1 428.089L799.1 418.089L774.1 502.089L1007.6 456.089L981.838 312.089L1037.6 473.089L940.1 492.089L833.1 646.589L908.6 500.089L763.1 531.589L757.1 1276.09L738.819 573.61C685.088 589.592 684.492 612.916 674.6 688.589C669.6 612.089 657.6 585.589 600.1 573.089C657.1 560.589 660.1 544.589 673.1 473.089C685.372 560.956 706.319 554.848 738.779 572.102L737.1 507.589L590.6 360.089Z" fill="#FBF0C1"/>
<path d="M1045.6 346.589C1064.1 371.089 1074.1 392.089 1079.6 410.589C1083.6 395.089 1102.1 360.089 1113.1 346.589C1107.92 340.258 1094.6 320.089 1078.6 283.589C1071.6 310.589 1057.6 327.089 1045.6 346.589Z" fill="#FBF0C1"/>
<path d="M1037.6 892.089V1287.09L823.6 1620.12H812.6L1009.1 1271.09L1037.6 473.089V715.589V892.089Z" fill="#101010"/>
<path fill-rule="evenodd" clip-rule="evenodd" d="M1165.89 1398.09C1165.98 1398.09 1166.08 1398.09 1166.18 1398.09C1166.37 1398.09 1166.57 1398.1 1166.76 1398.1C1166.89 1398.1 1167.01 1398.11 1167.14 1398.11C1167.34 1398.12 1167.55 1398.13 1167.75 1398.14C1167.86 1398.14 1167.96 1398.15 1168.07 1398.15C1168.25 1398.16 1168.44 1398.17 1168.62 1398.19C1168.76 1398.19 1168.89 1398.2 1169.02 1398.21C1169.22 1398.23 1169.41 1398.24 1169.6 1398.26C1169.71 1398.27 1169.82 1398.28 1169.94 1398.29C1170.14 1398.31 1170.34 1398.33 1170.54 1398.35C1170.65 1398.37 1170.76 1398.38 1170.87 1398.39C1171.06 1398.41 1171.24 1398.43 1171.43 1398.46C1171.56 1398.47 1171.7 1398.49 1171.83 1398.51C1171.99 1398.53 1172.15 1398.56 1172.31 1398.58C1172.46 1398.6 1172.61 1398.62 1172.77 1398.65C1172.89 1398.67 1173.02 1398.69 1173.14 1398.71C1173.15 1398.71 1173.15 1398.71 1173.16 1398.71C1173.34 1398.74 1173.52 1398.77 1173.7 1398.81C1173.86 1398.83 1174.02 1398.86 1174.17 1398.89C1174.3 1398.92 1174.43 1398.94 1174.56 1398.97C1174.76 1399.01 1174.95 1399.05 1175.14 1399.09C1175.26 1399.11 1175.37 1399.14 1175.49 1399.16C1175.67 1399.2 1175.85 1399.24 1176.03 1399.29C1176.16 1399.32 1176.3 1399.35 1176.43 1399.38C1176.59 1399.42 1176.75 1399.46 1176.91 1399.5C1177.05 1399.53 1177.19 1399.57 1177.32 1399.61C1177.34 1399.61 1177.36 1399.62 1177.37 1399.62C1177.38 1399.62 1177.38 1399.62 1177.38 1399.62C1177.51 1399.66 1177.63 1399.69 1177.75 1399.72C1177.93 1399.77 1178.1 1399.82 1178.28 1399.87C1178.39 1399.9 1178.5 1399.93 1178.6 1399.97C1178.68 1399.99 1178.75 1400.01 1178.83 1400.03C1178.94 1400.06 1179.04 1400.1 1179.15 1400.13C1179.23 1400.16 1179.32 1400.18 1179.4 1400.21C1179.5 1400.24 1179.59 1400.27 1179.69 1400.3C1179.78 1400.33 1179.88 1400.36 1179.97 1400.39C1180.15 1400.45 1180.33 1400.51 1180.51 1400.57C1180.6 1400.61 1180.69 1400.63 1180.78 1400.67C1180.87 1400.7 1180.96 1400.73 1181.05 1400.76C1181.09 1400.77 1181.13 1400.79 1181.17 1400.8C1181.25 1400.83 1181.33 1400.86 1181.42 1400.89C1181.47 1400.91 1181.53 1400.93 1181.58 1400.95C1181.68 1400.99 1181.78 1401.03 1181.88 1401.07C1181.93 1401.08 1181.98 1401.1 1182.03 1401.12C1182.15 1401.17 1182.27 1401.22 1182.39 1401.26C1182.42 1401.27 1182.45 1401.28 1182.47 1401.29C1183.01 1401.51 1183.54 1401.73 1184.07 1401.96C1184.1 1401.97 1184.13 1401.99 1184.16 1402C1184.28 1402.05 1184.4 1402.11 1184.52 1402.16C1184.55 1402.17 1184.58 1402.19 1184.61 1402.2C1185.7 1402.7 1186.78 1403.24 1187.83 1403.82C1187.88 1403.84 1187.93 1403.87 1187.98 1403.9C1188.2 1404.02 1188.43 1404.15 1188.65 1404.28C1188.68 1404.3 1188.71 1404.32 1188.75 1404.34C1188.81 1404.37 1188.87 1404.41 1188.94 1404.45C1189.04 1404.51 1189.14 1404.57 1189.25 1404.63C1189.31 1404.67 1189.38 1404.71 1189.44 1404.75C1189.52 1404.79 1189.6 1404.84 1189.67 1404.89C1189.78 1404.96 1189.89 1405.02 1189.99 1405.09C1190.04 1405.12 1190.09 1405.15 1190.14 1405.18C1190.25 1405.25 1190.35 1405.32 1190.46 1405.38C1190.6 1405.48 1190.75 1405.57 1190.89 1405.67C1191.01 1405.74 1191.13 1405.82 1191.25 1405.9C1191.39 1406 1191.53 1406.09 1191.67 1406.19C1191.79 1406.27 1191.92 1406.36 1192.05 1406.45C1192.16 1406.53 1192.26 1406.6 1192.37 1406.68C1192.51 1406.78 1192.66 1406.88 1192.8 1406.99C1192.92 1407.08 1193.04 1407.17 1193.17 1407.26C1193.29 1407.36 1193.42 1407.45 1193.55 1407.55C1193.66 1407.63 1193.77 1407.72 1193.88 1407.8C1194.01 1407.91 1194.15 1408.02 1194.29 1408.13C1194.4 1408.22 1194.51 1408.31 1194.63 1408.4C1194.75 1408.5 1194.88 1408.61 1195.01 1408.71C1195.13 1408.82 1195.26 1408.92 1195.38 1409.03C1195.49 1409.12 1195.6 1409.22 1195.71 1409.31C1195.83 1409.41 1195.94 1409.51 1196.06 1409.62C1196.19 1409.73 1196.32 1409.85 1196.45 1409.96C1196.54 1410.04 1196.62 1410.12 1196.71 1410.2C1196.85 1410.33 1197 1410.46 1197.14 1410.6C1197.22 1410.68 1197.31 1410.76 1197.4 1410.85C1197.54 1410.99 1197.69 1411.13 1197.84 1411.27C1197.91 1411.34 1197.98 1411.41 1198.05 1411.48C1198.19 1411.62 1198.33 1411.76 1198.46 1411.9C1198.59 1412.02 1198.71 1412.15 1198.84 1412.28C1198.93 1412.38 1199.02 1412.48 1199.12 1412.58C1199.22 1412.69 1199.32 1412.8 1199.43 1412.91C1199.54 1413.04 1199.66 1413.17 1199.78 1413.3C1199.87 1413.4 1199.95 1413.49 1200.04 1413.59C1200.16 1413.73 1200.28 1413.87 1200.4 1414.01C1200.48 1414.09 1200.55 1414.17 1200.62 1414.26C1200.96 1414.66 1201.3 1415.07 1201.63 1415.49C1201.7 1415.58 1201.77 1415.67 1201.84 1415.76C1201.96 1415.92 1202.09 1416.08 1202.21 1416.24C1202.29 1416.34 1202.37 1416.45 1202.45 1416.55C1202.51 1416.64 1202.58 1416.72 1202.64 1416.81C1202.69 1416.88 1202.75 1416.96 1202.8 1417.03C1202.83 1417.07 1202.86 1417.11 1202.89 1417.16C1202.98 1417.27 1203.06 1417.39 1203.14 1417.51C1203.4 1417.88 1203.66 1418.25 1203.91 1418.62C1203.94 1418.67 1203.97 1418.71 1203.99 1418.76C1204.1 1418.92 1204.21 1419.08 1204.31 1419.24C1204.35 1419.3 1204.38 1419.35 1204.41 1419.4C1204.44 1419.44 1204.46 1419.48 1204.49 1419.52C1204.61 1419.71 1204.73 1419.9 1204.85 1420.09C1204.87 1420.14 1204.9 1420.18 1204.93 1420.23C1205.24 1420.74 1205.55 1421.27 1205.84 1421.8C1205.86 1421.83 1205.87 1421.86 1205.89 1421.89C1205.91 1421.92 1205.92 1421.95 1205.94 1421.98C1206.23 1422.52 1206.52 1423.06 1206.79 1423.61C1206.81 1423.64 1206.83 1423.68 1206.85 1423.72C1206.92 1423.86 1206.99 1424.01 1207.06 1424.15C1207.82 1425.72 1208.26 1426.85 1208.32 1426.99C1208.68 1427.86 1208.97 1428.63 1209.15 1429.13C1209.53 1430.16 1209.9 1431.24 1210.21 1432.15C1210.85 1434.05 1211.61 1436.41 1212.41 1438.93C1214.04 1444.01 1216.05 1450.49 1217.99 1456.78C1219.94 1463.1 1221.85 1469.34 1223.26 1473.99C1223.97 1476.32 1224.56 1478.25 1224.97 1479.61C1225.18 1480.29 1225.34 1480.82 1225.45 1481.19C1225.51 1481.37 1225.55 1481.51 1225.58 1481.6C1225.59 1481.65 1225.6 1481.69 1225.61 1481.71C1225.62 1481.72 1225.62 1481.73 1225.62 1481.74C1225.62 1481.74 1225.62 1481.75 1225.62 1481.75V1481.75C1225.63 1481.77 1225.64 1481.79 1225.64 1481.81C1225.67 1481.91 1225.7 1482.01 1225.73 1482.1C1225.79 1482.32 1225.85 1482.53 1225.91 1482.75C1225.95 1482.86 1225.98 1482.98 1226.01 1483.09C1226.02 1483.16 1226.04 1483.22 1226.06 1483.28C1226.1 1483.43 1226.14 1483.59 1226.18 1483.74C1226.2 1483.84 1226.23 1483.95 1226.26 1484.05C1226.28 1484.16 1226.31 1484.27 1226.34 1484.38C1226.36 1484.47 1226.38 1484.55 1226.4 1484.64C1226.55 1485.29 1226.69 1485.95 1226.81 1486.6C1226.83 1486.69 1226.84 1486.77 1226.86 1486.86C1226.88 1486.98 1226.9 1487.11 1226.92 1487.23C1226.94 1487.34 1226.96 1487.44 1226.98 1487.55C1226.99 1487.64 1227 1487.72 1227.02 1487.8C1227.08 1488.16 1227.13 1488.51 1227.18 1488.86C1227.23 1489.24 1227.27 1489.61 1227.32 1489.98C1227.33 1490.14 1227.35 1490.3 1227.37 1490.46C1227.38 1490.58 1227.39 1490.7 1227.4 1490.82C1227.41 1490.89 1227.41 1490.95 1227.42 1491.02C1227.43 1491.17 1227.44 1491.32 1227.46 1491.48C1227.46 1491.56 1227.47 1491.64 1227.48 1491.73C1227.49 1491.85 1227.49 1491.98 1227.5 1492.11C1227.53 1492.55 1227.55 1493 1227.57 1493.45C1227.57 1493.5 1227.57 1493.56 1227.58 1493.62C1227.58 1493.75 1227.58 1493.88 1227.59 1494.01C1227.59 1494.11 1227.59 1494.21 1227.59 1494.31C1227.59 1494.4 1227.6 1494.49 1227.6 1494.58C1227.6 1494.73 1227.6 1494.87 1227.6 1495.02C1227.6 1495.63 1227.59 1496.25 1227.56 1496.87C1227.56 1496.97 1227.56 1497.07 1227.55 1497.17C1227.55 1497.29 1227.54 1497.42 1227.53 1497.54C1227.53 1497.64 1227.52 1497.73 1227.52 1497.82C1227.51 1497.94 1227.5 1498.06 1227.49 1498.18C1227.49 1498.29 1227.48 1498.4 1227.47 1498.51C1227.46 1498.6 1227.46 1498.7 1227.45 1498.79C1227.42 1499.22 1227.38 1499.64 1227.33 1500.07C1227.32 1500.17 1227.31 1500.27 1227.3 1500.37C1227.28 1500.48 1227.27 1500.6 1227.25 1500.71C1227.24 1500.81 1227.23 1500.91 1227.22 1501C1227.2 1501.14 1227.18 1501.27 1227.16 1501.41C1227.15 1501.47 1227.14 1501.54 1227.13 1501.61C1227.05 1502.21 1226.95 1502.8 1226.84 1503.39C1226.82 1503.51 1226.8 1503.63 1226.78 1503.75C1226.75 1503.9 1226.72 1504.05 1226.69 1504.2C1226.67 1504.29 1226.65 1504.37 1226.63 1504.46C1226.6 1504.6 1226.57 1504.75 1226.54 1504.89C1226.52 1504.97 1226.51 1505.05 1226.49 1505.13C1226.41 1505.5 1226.32 1505.87 1226.23 1506.23C1226.19 1506.38 1226.15 1506.53 1226.11 1506.68C1226.08 1506.79 1226.06 1506.9 1226.03 1507.01C1226.01 1507.07 1225.99 1507.13 1225.98 1507.2C1225.94 1507.35 1225.89 1507.5 1225.85 1507.65C1225.83 1507.73 1225.81 1507.8 1225.79 1507.88C1225.74 1508.03 1225.7 1508.18 1225.65 1508.33C1225.63 1508.39 1225.62 1508.45 1225.6 1508.51C1225.56 1508.65 1225.51 1508.78 1225.47 1508.92C1225.27 1509.55 1225.06 1510.19 1224.83 1510.82C1224.81 1510.86 1224.8 1510.9 1224.78 1510.94C1224.74 1511.06 1224.69 1511.18 1224.65 1511.3C1224.62 1511.38 1224.59 1511.46 1224.56 1511.54C1224.51 1511.67 1224.46 1511.8 1224.41 1511.93C1224.37 1512.01 1224.34 1512.1 1224.3 1512.18C1223.98 1513 1223.63 1513.81 1223.25 1514.61C1223.22 1514.68 1223.19 1514.74 1223.16 1514.81C1222.17 1516.89 1221.02 1518.91 1219.72 1520.84C1219.67 1520.9 1219.63 1520.97 1219.59 1521.03C1219.07 1521.79 1218.52 1522.54 1217.95 1523.27C1217.92 1523.31 1217.89 1523.35 1217.86 1523.39C1217.79 1523.49 1217.71 1523.58 1217.63 1523.68C1217.55 1523.78 1217.47 1523.89 1217.39 1523.99C1217.33 1524.06 1217.27 1524.13 1217.21 1524.21C1217.13 1524.31 1217.05 1524.4 1216.97 1524.5C1216.92 1524.56 1216.87 1524.62 1216.82 1524.68L1116.82 1643.68C1108.08 1654.08 1095.19 1660.09 1081.6 1660.09H970.6C968.968 1660.09 967.345 1660 965.737 1659.83C964.847 1659.73 963.961 1659.61 963.081 1659.47C962.655 1659.4 962.23 1659.32 961.806 1659.24C960.936 1659.07 960.071 1658.88 959.214 1658.66C958.668 1658.52 958.126 1658.36 957.587 1658.21C955.593 1657.62 953.642 1656.9 951.749 1656.05C950.802 1655.62 949.871 1655.16 948.955 1654.67C948.589 1654.48 948.224 1654.28 947.863 1654.07C947.239 1653.72 946.623 1653.35 946.014 1652.96C944.322 1651.89 942.695 1650.71 941.145 1649.42C940.954 1649.26 940.765 1649.1 940.576 1648.93C939.604 1648.1 938.662 1647.22 937.757 1646.29C937.729 1646.27 937.701 1646.24 937.674 1646.21C937.457 1645.99 937.243 1645.76 937.031 1645.54C935.426 1643.82 933.964 1642 932.652 1640.09C932.563 1639.96 932.477 1639.82 932.389 1639.69C932.164 1639.36 931.944 1639.02 931.729 1638.68C931.441 1638.22 931.159 1637.76 930.888 1637.3C930.292 1636.28 929.737 1635.24 929.222 1634.18C928.138 1631.95 927.239 1629.63 926.528 1627.25C925.178 1622.73 924.515 1617.99 924.609 1613.19L925.609 1562.19V1562.16C925.644 1560.46 925.772 1558.77 925.993 1557.09C926.001 1557.03 926.009 1556.97 926.017 1556.91C926.078 1556.46 926.143 1556.02 926.217 1555.58C926.237 1555.45 926.26 1555.33 926.282 1555.2C926.295 1555.13 926.308 1555.05 926.321 1554.98C926.344 1554.85 926.368 1554.72 926.391 1554.6C926.866 1552.04 927.415 1550.26 927.613 1549.61C928.247 1547.53 928.901 1545.92 929.257 1545.08C929.985 1543.36 930.673 1542.02 930.972 1541.44C931.645 1540.16 932.286 1539.06 932.629 1538.48C933.402 1537.18 934.291 1535.76 935.114 1534.47C936.829 1531.78 939.133 1528.28 941.768 1524.34C947.072 1516.41 954.167 1506.04 961.52 1495.62C967.017 1487.84 972.842 1479.76 978.274 1472.54C978.298 1472.51 978.323 1472.48 978.347 1472.45C980.092 1470.13 981.797 1467.9 983.436 1465.8C986.757 1461.55 990.297 1457.2 993.644 1453.51C995.28 1451.71 997.449 1449.43 999.933 1447.21C1001.01 1446.25 1006.27 1441.38 1014.23 1437.92C1014.37 1437.86 1014.51 1437.8 1014.65 1437.74C1014.75 1437.69 1014.85 1437.65 1014.96 1437.61C1015.12 1437.54 1015.29 1437.47 1015.46 1437.4C1015.53 1437.38 1015.59 1437.35 1015.66 1437.32C1015.92 1437.22 1016.18 1437.12 1016.45 1437.02L1017.4 1436.68C1018.36 1436.34 1019.56 1435.95 1020.92 1435.53C1022.29 1435.11 1023.83 1434.65 1025.5 1434.16C1026.61 1433.84 1027.78 1433.5 1028.99 1433.16C1030.2 1432.82 1031.45 1432.46 1032.73 1432.11C1036.57 1431.03 1040.66 1429.91 1044.61 1428.83C1054.6 1426.1 1066.65 1422.84 1079.04 1419.52C1082.75 1418.52 1086.49 1417.52 1090.22 1416.52C1106.38 1412.2 1122.29 1407.97 1134.15 1404.83C1140.09 1403.26 1145.01 1401.95 1148.45 1401.04C1150.17 1400.59 1151.52 1400.23 1152.44 1399.99C1152.9 1399.86 1153.26 1399.77 1153.49 1399.71C1153.61 1399.68 1153.7 1399.65 1153.77 1399.64C1153.8 1399.63 1153.82 1399.62 1153.83 1399.62C1153.84 1399.62 1153.85 1399.61 1153.85 1399.61C1153.85 1399.61 1153.86 1399.61 1153.86 1399.61L1153.86 1399.61C1153.91 1399.6 1153.96 1399.59 1154.01 1399.57C1154.15 1399.54 1154.3 1399.5 1154.45 1399.46C1154.67 1399.41 1154.89 1399.35 1155.12 1399.3C1155.28 1399.26 1155.45 1399.22 1155.61 1399.19C1155.66 1399.18 1155.71 1399.16 1155.76 1399.15C1155.78 1399.15 1155.8 1399.14 1155.81 1399.14C1155.85 1399.13 1155.88 1399.13 1155.91 1399.12C1156.1 1399.08 1156.28 1399.04 1156.46 1399.01C1156.58 1398.98 1156.69 1398.96 1156.8 1398.94C1156.99 1398.9 1157.18 1398.87 1157.37 1398.83C1157.47 1398.81 1157.57 1398.79 1157.67 1398.77C1157.81 1398.75 1157.95 1398.73 1158.08 1398.71C1158.16 1398.69 1158.24 1398.68 1158.32 1398.67C1158.41 1398.65 1158.49 1398.64 1158.58 1398.63C1158.81 1398.59 1159.04 1398.56 1159.27 1398.53C1159.36 1398.51 1159.46 1398.5 1159.55 1398.49C1159.71 1398.46 1159.87 1398.45 1160.02 1398.43C1160.19 1398.41 1160.36 1398.38 1160.53 1398.37C1160.71 1398.35 1160.9 1398.33 1161.08 1398.31C1161.2 1398.3 1161.32 1398.29 1161.44 1398.27C1161.64 1398.26 1161.84 1398.24 1162.04 1398.23C1162.17 1398.22 1162.29 1398.2 1162.41 1398.2C1162.59 1398.18 1162.77 1398.17 1162.95 1398.16C1163.08 1398.15 1163.22 1398.15 1163.36 1398.14C1163.54 1398.13 1163.72 1398.12 1163.9 1398.12C1164.04 1398.11 1164.17 1398.11 1164.31 1398.1C1164.52 1398.1 1164.73 1398.09 1164.93 1398.09C1165.03 1398.09 1165.13 1398.09 1165.23 1398.09C1165.45 1398.08 1165.67 1398.09 1165.89 1398.09Z" fill="#101010"/>
<path d="M971.6 1563.09C971.6 1564.59 970.6 1614.09 970.6 1614.09H1081.6L1181.6 1495.09C1181.6 1495.09 1166.76 1446.09 1165.6 1444.09C1165.6 1444.09 1040.6 1477.09 1032.6 1480.09C1024.6 1483.09 971.6 1561.59 971.6 1563.09Z" fill="#DD730E"/>
<path d="M971.6 1563.09L970.6 1614.09H1061.6L971.6 1563.09Z" fill="#E59211"/>
<path d="M1165.6 1444.09L1087.1 1517.09L1181.6 1495.09L1165.6 1444.09Z" fill="#F5B31F"/>
<path d="M1087.1 1517.09L1061.6 1614.09L971.6 1563.09L1015.12 1500.09L1087.1 1517.09Z" fill="#F7CD3D"/>
<path d="M1165.6 1444.09C1165.6 1444.09 1040.6 1477.09 1032.6 1480.09C1030.12 1481.02 1015.12 1500.09 1015.12 1500.09L1087.1 1517.09L1165.6 1444.09Z" fill="#FBF0C1"/>
<path fill-rule="evenodd" clip-rule="evenodd" d="M1340.92 1432.09C1341.04 1432.09 1341.16 1432.09 1341.29 1432.09C1341.34 1432.09 1341.39 1432.09 1341.44 1432.1C1341.53 1432.1 1341.61 1432.1 1341.7 1432.1C1341.85 1432.11 1342.01 1432.11 1342.16 1432.12C1342.18 1432.12 1342.19 1432.12 1342.21 1432.12C1342.21 1432.12 1342.21 1432.12 1342.21 1432.12C1342.29 1432.12 1342.37 1432.12 1342.45 1432.13C1342.64 1432.13 1342.82 1432.14 1343 1432.15C1343.09 1432.16 1343.19 1432.16 1343.28 1432.17C1343.4 1432.17 1343.52 1432.18 1343.64 1432.19C1343.7 1432.19 1343.77 1432.2 1343.83 1432.2C1343.86 1432.2 1343.88 1432.21 1343.91 1432.21C1343.96 1432.21 1344.02 1432.22 1344.07 1432.22C1344.17 1432.23 1344.27 1432.24 1344.38 1432.24C1344.45 1432.25 1344.52 1432.26 1344.6 1432.26C1344.64 1432.27 1344.68 1432.27 1344.73 1432.27C1344.78 1432.28 1344.83 1432.28 1344.89 1432.29C1344.97 1432.3 1345.06 1432.31 1345.15 1432.31C1345.24 1432.32 1345.33 1432.33 1345.41 1432.34C1345.58 1432.36 1345.74 1432.38 1345.9 1432.4C1346.02 1432.41 1346.14 1432.43 1346.27 1432.44C1346.33 1432.45 1346.4 1432.46 1346.47 1432.46C1346.52 1432.47 1346.58 1432.48 1346.64 1432.49C1346.78 1432.51 1346.92 1432.52 1347.05 1432.54L1347.35 1432.59C1347.4 1432.59 1347.44 1432.6 1347.49 1432.61C1347.57 1432.62 1347.64 1432.63 1347.72 1432.64C1347.83 1432.66 1347.95 1432.68 1348.06 1432.7C1348.13 1432.71 1348.19 1432.72 1348.26 1432.73C1348.34 1432.74 1348.43 1432.76 1348.52 1432.78C1348.63 1432.8 1348.74 1432.82 1348.85 1432.84C1348.91 1432.85 1348.97 1432.86 1349.04 1432.87C1349.13 1432.89 1349.22 1432.9 1349.32 1432.92C1349.42 1432.94 1349.51 1432.96 1349.61 1432.98C1349.77 1433.01 1349.92 1433.04 1350.07 1433.08C1350.18 1433.1 1350.29 1433.12 1350.39 1433.14C1350.45 1433.16 1350.5 1433.17 1350.55 1433.18C1350.65 1433.2 1350.74 1433.22 1350.84 1433.24C1350.93 1433.26 1351.02 1433.28 1351.12 1433.31C1351.22 1433.33 1351.32 1433.35 1351.42 1433.38C1351.49 1433.39 1351.55 1433.41 1351.62 1433.43C1351.71 1433.45 1351.8 1433.47 1351.9 1433.5C1352 1433.52 1352.1 1433.55 1352.21 1433.58C1352.27 1433.59 1352.33 1433.61 1352.4 1433.63C1352.45 1433.64 1352.5 1433.65 1352.55 1433.67C1352.69 1433.7 1352.83 1433.74 1352.97 1433.78C1353.03 1433.8 1353.09 1433.82 1353.15 1433.83C1353.24 1433.86 1353.33 1433.89 1353.42 1433.91C1353.53 1433.94 1353.64 1433.97 1353.74 1434.01C1353.79 1434.02 1353.83 1434.03 1353.88 1434.05C1353.95 1434.07 1354.03 1434.09 1354.1 1434.11C1354.24 1434.16 1354.38 1434.2 1354.52 1434.24C1354.63 1434.28 1354.75 1434.32 1354.86 1434.35C1355.01 1434.4 1355.15 1434.45 1355.3 1434.5C1355.42 1434.54 1355.54 1434.58 1355.66 1434.62C1355.77 1434.66 1355.89 1434.7 1356.01 1434.75C1356.15 1434.8 1356.29 1434.85 1356.43 1434.9C1356.54 1434.94 1356.65 1434.98 1356.76 1435.02C1356.8 1435.03 1356.84 1435.05 1356.88 1435.07C1356.99 1435.1 1357.09 1435.14 1357.19 1435.18C1357.28 1435.22 1357.37 1435.25 1357.46 1435.29C1357.51 1435.31 1357.55 1435.33 1357.59 1435.34C1357.73 1435.4 1357.86 1435.45 1357.99 1435.5C1358.06 1435.53 1358.13 1435.56 1358.2 1435.59C1358.24 1435.6 1358.28 1435.62 1358.31 1435.64C1358.45 1435.69 1358.58 1435.75 1358.71 1435.8C1358.76 1435.83 1358.82 1435.85 1358.87 1435.87C1358.87 1435.87 1358.88 1435.88 1358.89 1435.88C1358.94 1435.9 1359 1435.93 1359.05 1435.95C1359.24 1436.03 1359.42 1436.11 1359.6 1436.2C1359.66 1436.22 1359.72 1436.25 1359.78 1436.28C1359.96 1436.36 1360.14 1436.45 1360.33 1436.53C1360.38 1436.56 1360.43 1436.58 1360.48 1436.6C1360.67 1436.7 1360.86 1436.79 1361.06 1436.89C1361.08 1436.9 1361.1 1436.91 1361.12 1436.92C1361.86 1437.29 1362.6 1437.68 1363.32 1438.09C1363.48 1438.18 1363.65 1438.28 1363.82 1438.37C1364.19 1438.59 1364.55 1438.81 1364.92 1439.04C1365.02 1439.1 1365.12 1439.17 1365.22 1439.23C1365.31 1439.29 1365.41 1439.35 1365.5 1439.41C1365.63 1439.5 1365.77 1439.58 1365.9 1439.67C1366.01 1439.74 1366.12 1439.81 1366.22 1439.89C1366.34 1439.96 1366.45 1440.04 1366.56 1440.12C1366.67 1440.19 1366.78 1440.26 1366.89 1440.34C1367.01 1440.42 1367.12 1440.51 1367.24 1440.59C1367.35 1440.66 1367.45 1440.74 1367.56 1440.82C1367.68 1440.91 1367.81 1441 1367.93 1441.09C1368.03 1441.16 1368.13 1441.24 1368.23 1441.31C1368.34 1441.4 1368.45 1441.48 1368.56 1441.56C1368.68 1441.65 1368.8 1441.75 1368.92 1441.84C1368.99 1441.89 1369.06 1441.95 1369.13 1442.01C1369.27 1442.12 1369.41 1442.23 1369.55 1442.34C1370 1442.7 1370.44 1443.07 1370.87 1443.45L1455.8 1517.39C1456 1517.57 1456.2 1517.74 1456.4 1517.92C1456.45 1517.97 1456.51 1518.02 1456.57 1518.08C1456.7 1518.19 1456.82 1518.31 1456.95 1518.43C1457.04 1518.51 1457.13 1518.59 1457.22 1518.68C1457.33 1518.78 1457.43 1518.88 1457.54 1518.99C1457.61 1519.05 1457.68 1519.12 1457.75 1519.19C1457.93 1519.37 1458.11 1519.54 1458.29 1519.72C1458.34 1519.78 1458.4 1519.84 1458.45 1519.89C1458.57 1520.02 1458.7 1520.14 1458.82 1520.27C1458.88 1520.33 1458.94 1520.4 1459.01 1520.47C1459.12 1520.58 1459.22 1520.69 1459.33 1520.81C1459.85 1521.37 1460.36 1521.95 1460.85 1522.53C1460.89 1522.58 1460.93 1522.63 1460.97 1522.68C1462.36 1524.34 1463.61 1526.09 1464.74 1527.91C1464.78 1527.98 1464.82 1528.05 1464.86 1528.11C1465.71 1529.51 1466.48 1530.94 1467.18 1532.41C1467.22 1532.51 1467.27 1532.61 1467.32 1532.71C1467.37 1532.83 1467.43 1532.94 1467.48 1533.06C1467.53 1533.16 1467.57 1533.26 1467.62 1533.36C1467.82 1533.83 1468.02 1534.3 1468.22 1534.78C1468.25 1534.87 1468.29 1534.97 1468.33 1535.06C1468.38 1535.17 1468.42 1535.28 1468.46 1535.39C1468.51 1535.53 1468.57 1535.67 1468.62 1535.8C1468.66 1535.9 1468.69 1536 1468.73 1536.1C1468.77 1536.21 1468.81 1536.32 1468.85 1536.43C1468.93 1536.64 1469 1536.84 1469.07 1537.05C1469.13 1537.21 1469.18 1537.37 1469.24 1537.54C1469.25 1537.58 1469.26 1537.62 1469.28 1537.66C1469.34 1537.86 1469.4 1538.05 1469.47 1538.24C1469.49 1538.33 1469.52 1538.41 1469.55 1538.5C1469.6 1538.66 1469.65 1538.83 1469.7 1539C1469.72 1539.07 1469.74 1539.14 1469.76 1539.21C1469.98 1539.97 1470.18 1540.74 1470.37 1541.52C1470.38 1541.55 1470.39 1541.59 1470.4 1541.63C1470.51 1542.14 1470.62 1542.64 1470.72 1543.15C1470.74 1543.24 1470.76 1543.32 1470.77 1543.41C1470.8 1543.57 1470.83 1543.74 1470.86 1543.9C1470.88 1544.01 1470.9 1544.11 1470.92 1544.22C1470.95 1544.38 1470.98 1544.54 1471 1544.7C1471.01 1544.77 1471.02 1544.84 1471.04 1544.91C1471.12 1545.41 1471.19 1545.91 1471.25 1546.42C1471.26 1546.52 1471.27 1546.63 1471.29 1546.74C1471.3 1546.87 1471.32 1547 1471.33 1547.13C1471.35 1547.27 1471.36 1547.41 1471.38 1547.56C1471.39 1547.65 1471.39 1547.75 1471.4 1547.85C1471.47 1548.61 1471.53 1549.37 1471.56 1550.14C1471.56 1550.23 1471.57 1550.33 1471.57 1550.42C1471.63 1551.98 1471.6 1553.55 1471.5 1555.12L1468.51 1602.96C1467.11 1625.35 1449.77 1643.46 1427.46 1645.83L1314.46 1657.83C1314.42 1657.84 1314.39 1657.84 1314.36 1657.84C1314.11 1657.87 1313.86 1657.89 1313.62 1657.91C1313.52 1657.92 1313.43 1657.93 1313.33 1657.94C1313.1 1657.95 1312.88 1657.97 1312.65 1657.99C1312.54 1657.99 1312.44 1658 1312.33 1658.01C1312.17 1658.02 1312.01 1658.02 1311.85 1658.03C1306.77 1658.28 1301.78 1657.69 1297.07 1656.35C1297.06 1656.35 1297.05 1656.35 1297.04 1656.34C1296.49 1656.19 1295.94 1656.02 1295.39 1655.84C1295.35 1655.83 1295.3 1655.81 1295.26 1655.8C1294.25 1655.46 1293.25 1655.1 1292.26 1654.7C1292.18 1654.66 1292.09 1654.63 1292.01 1654.59C1291.86 1654.53 1291.71 1654.47 1291.57 1654.41C1291.43 1654.35 1291.3 1654.29 1291.17 1654.23C1291.02 1654.17 1290.88 1654.11 1290.74 1654.04C1290.59 1653.97 1290.44 1653.91 1290.29 1653.84C1290.17 1653.78 1290.05 1653.72 1289.93 1653.67C1289.76 1653.59 1289.59 1653.51 1289.42 1653.42C1289.32 1653.38 1289.22 1653.33 1289.12 1653.28C1288.94 1653.19 1288.76 1653.09 1288.58 1653C1288.47 1652.95 1288.37 1652.89 1288.26 1652.84C1288.06 1652.73 1287.86 1652.63 1287.67 1652.52C1287.61 1652.49 1287.55 1652.46 1287.48 1652.42C1287.28 1652.31 1287.09 1652.2 1286.89 1652.09C1286.8 1652.04 1286.7 1651.98 1286.61 1651.93C1285.8 1651.46 1285 1650.97 1284.22 1650.46C1284.17 1650.42 1284.11 1650.38 1284.05 1650.34C1283.86 1650.21 1283.67 1650.08 1283.49 1649.96C1283.36 1649.86 1283.22 1649.77 1283.09 1649.68C1282.98 1649.6 1282.87 1649.52 1282.76 1649.45C1282.63 1649.35 1282.49 1649.25 1282.36 1649.16C1282.23 1649.06 1282.1 1648.96 1281.97 1648.87C1281.86 1648.78 1281.75 1648.7 1281.64 1648.62C1281.51 1648.51 1281.38 1648.41 1281.25 1648.31C1281.13 1648.21 1281 1648.12 1280.88 1648.02C1280.79 1647.94 1280.69 1647.87 1280.6 1647.79C1280.44 1647.66 1280.27 1647.53 1280.11 1647.39C1280.08 1647.37 1280.06 1647.35 1280.03 1647.32C1274.97 1643.08 1270.8 1637.73 1267.92 1631.55C1267.89 1631.48 1267.86 1631.42 1267.83 1631.35C1267.73 1631.14 1267.63 1630.93 1267.54 1630.72C1267.5 1630.63 1267.46 1630.54 1267.43 1630.46C1267.36 1630.3 1267.29 1630.15 1267.23 1630C1267.16 1629.84 1267.1 1629.69 1267.04 1629.53C1266.98 1629.39 1266.92 1629.25 1266.87 1629.11C1266.81 1628.97 1266.75 1628.82 1266.69 1628.67C1266.63 1628.51 1266.57 1628.36 1266.52 1628.21C1266.45 1628.03 1266.39 1627.85 1266.32 1627.67C1266.28 1627.56 1266.24 1627.44 1266.2 1627.33C1266.12 1627.12 1266.05 1626.9 1265.98 1626.69C1265.95 1626.59 1265.91 1626.49 1265.88 1626.4C1265.78 1626.09 1265.68 1625.78 1265.59 1625.46L1234.59 1523.46C1234.57 1523.41 1234.56 1523.35 1234.54 1523.3C1234.48 1523.09 1234.42 1522.89 1234.36 1522.68C1234.32 1522.55 1234.28 1522.42 1234.25 1522.29C1234.2 1522.09 1234.14 1521.9 1234.09 1521.71C1234.08 1521.65 1234.06 1521.58 1234.04 1521.52C1234.02 1521.45 1234 1521.37 1233.99 1521.29C1233.95 1521.13 1233.91 1520.97 1233.87 1520.81C1233.85 1520.73 1233.83 1520.65 1233.81 1520.58C1233.78 1520.43 1233.74 1520.28 1233.71 1520.13C1233.67 1519.94 1233.63 1519.76 1233.59 1519.58C1233.56 1519.45 1233.54 1519.33 1233.51 1519.2C1233.5 1519.14 1233.49 1519.09 1233.48 1519.03C1233.45 1518.9 1233.42 1518.77 1233.4 1518.63C1233.37 1518.46 1233.34 1518.28 1233.3 1518.11C1233.28 1517.97 1233.26 1517.83 1233.23 1517.7C1233.2 1517.5 1233.17 1517.31 1233.14 1517.11C1233.12 1516.99 1233.1 1516.86 1233.08 1516.74C1233.05 1516.54 1233.03 1516.35 1233 1516.15C1232.98 1516.03 1232.97 1515.9 1232.95 1515.78C1232.92 1515.56 1232.9 1515.35 1232.87 1515.13C1232.87 1515.05 1232.86 1514.98 1232.85 1514.9C1232.79 1514.33 1232.74 1513.76 1232.7 1513.19C1232.7 1513.13 1232.69 1513.08 1232.69 1513.02C1232.65 1512.45 1232.63 1511.87 1232.61 1511.3C1232.61 1511.23 1232.61 1511.17 1232.61 1511.1C1232.55 1508.7 1232.69 1506.32 1233.01 1503.97C1233.02 1503.9 1233.02 1503.83 1233.03 1503.76C1233.07 1503.52 1233.1 1503.29 1233.14 1503.05C1233.15 1502.98 1233.16 1502.9 1233.17 1502.83C1233.21 1502.59 1233.25 1502.35 1233.3 1502.11C1233.31 1502.04 1233.32 1501.97 1233.33 1501.91C1233.38 1501.67 1233.42 1501.43 1233.47 1501.2C1233.48 1501.12 1233.5 1501.04 1233.51 1500.97C1233.56 1500.74 1233.61 1500.51 1233.66 1500.29C1233.67 1500.21 1233.69 1500.13 1233.71 1500.05C1233.76 1499.83 1233.81 1499.61 1233.86 1499.4C1233.89 1499.28 1233.92 1499.15 1233.95 1499.03C1233.99 1498.86 1234.03 1498.69 1234.08 1498.52C1234.12 1498.37 1234.16 1498.22 1234.2 1498.06C1234.24 1497.92 1234.28 1497.77 1234.32 1497.62C1234.36 1497.48 1234.4 1497.34 1234.44 1497.2C1234.46 1497.15 1234.47 1497.1 1234.49 1497.05C1234.53 1496.89 1234.58 1496.72 1234.63 1496.56C1234.68 1496.4 1234.73 1496.24 1234.78 1496.08C1234.81 1496.01 1234.83 1495.94 1234.85 1495.86L1234.9 1495.73C1234.98 1495.49 1235.06 1495.26 1235.14 1495.02C1235.17 1494.94 1235.2 1494.86 1235.23 1494.77C1235.3 1494.57 1235.37 1494.36 1235.45 1494.16C1235.47 1494.09 1235.5 1494.02 1235.53 1493.95C1235.63 1493.67 1235.73 1493.4 1235.84 1493.13C1235.88 1493.02 1235.92 1492.92 1235.97 1492.82C1235.97 1492.81 1235.97 1492.81 1235.97 1492.8C1236.02 1492.68 1236.07 1492.55 1236.12 1492.43C1236.15 1492.36 1236.18 1492.29 1236.21 1492.21C1236.24 1492.15 1236.27 1492.09 1236.3 1492.03C1236.36 1491.88 1236.42 1491.74 1236.48 1491.59C1236.52 1491.5 1236.56 1491.41 1236.6 1491.32C1236.6 1491.32 1236.6 1491.31 1236.61 1491.31C1236.71 1491.09 1236.81 1490.86 1236.91 1490.64C1236.97 1490.53 1237.02 1490.41 1237.08 1490.3C1237.13 1490.18 1237.18 1490.07 1237.24 1489.96C1237.27 1489.89 1237.31 1489.82 1237.34 1489.75L1237.46 1489.52C1237.46 1489.51 1237.47 1489.49 1237.47 1489.48C1237.51 1489.41 1237.55 1489.34 1237.58 1489.27C1237.67 1489.09 1237.76 1488.92 1237.85 1488.74C1237.9 1488.65 1237.95 1488.56 1238 1488.47C1238.1 1488.28 1238.2 1488.09 1238.31 1487.9C1238.35 1487.81 1238.4 1487.73 1238.45 1487.64C1238.57 1487.43 1238.69 1487.22 1238.81 1487.01C1238.84 1486.95 1238.88 1486.88 1238.92 1486.82C1239.03 1486.63 1239.14 1486.44 1239.26 1486.25C1239.33 1486.14 1239.4 1486.02 1239.47 1485.91C1239.56 1485.77 1239.65 1485.62 1239.74 1485.48C1239.82 1485.35 1239.9 1485.22 1239.98 1485.1C1240.09 1484.93 1240.19 1484.77 1240.3 1484.61C1240.36 1484.51 1240.42 1484.42 1240.49 1484.33C1240.59 1484.18 1240.7 1484.02 1240.8 1483.87C1240.89 1483.74 1240.98 1483.61 1241.08 1483.48C1241.15 1483.37 1241.23 1483.26 1241.31 1483.15C1241.42 1483 1241.52 1482.86 1241.63 1482.71C1241.71 1482.6 1241.8 1482.49 1241.88 1482.37C1241.99 1482.23 1242.1 1482.08 1242.22 1481.94C1242.28 1481.86 1242.34 1481.78 1242.4 1481.7C1244.07 1479.57 1245.93 1477.58 1247.98 1475.76C1248 1475.74 1248.01 1475.73 1248.03 1475.71C1249.43 1474.46 1250.93 1473.29 1252.5 1472.21C1252.53 1472.19 1252.55 1472.17 1252.58 1472.15C1252.82 1471.99 1253.07 1471.82 1253.31 1471.66C1253.33 1471.65 1253.36 1471.63 1253.38 1471.62C1253.63 1471.45 1253.88 1471.29 1254.13 1471.13C1254.14 1471.13 1254.14 1471.13 1254.15 1471.12C1254.19 1471.1 1254.23 1471.07 1254.28 1471.04C1254.38 1470.98 1254.47 1470.92 1254.57 1470.86C1254.7 1470.78 1254.83 1470.7 1254.96 1470.63C1255.03 1470.58 1255.1 1470.54 1255.17 1470.5C1255.3 1470.42 1255.43 1470.35 1255.56 1470.28C1255.63 1470.23 1255.71 1470.19 1255.79 1470.14C1255.93 1470.07 1256.06 1469.99 1256.2 1469.91C1256.24 1469.89 1256.28 1469.87 1256.31 1469.85C1256.82 1469.57 1257.34 1469.29 1257.86 1469.03L1319.5 1437.21L1319.55 1437.19C1319.71 1437.1 1319.87 1437.02 1320.03 1436.94C1320.14 1436.89 1320.24 1436.84 1320.34 1436.79C1320.47 1436.73 1320.6 1436.67 1320.73 1436.6C1320.82 1436.56 1320.91 1436.52 1321 1436.47C1321.14 1436.41 1321.29 1436.34 1321.43 1436.28C1321.52 1436.23 1321.62 1436.19 1321.71 1436.14C1321.75 1436.13 1321.79 1436.11 1321.83 1436.09C1321.86 1436.08 1321.89 1436.07 1321.92 1436.05C1322.07 1435.99 1322.22 1435.92 1322.36 1435.86C1322.42 1435.83 1322.47 1435.81 1322.53 1435.79C1322.62 1435.75 1322.71 1435.71 1322.8 1435.67C1322.97 1435.6 1323.14 1435.53 1323.3 1435.46C1323.41 1435.42 1323.51 1435.38 1323.61 1435.34C1323.63 1435.34 1323.64 1435.33 1323.66 1435.32C1323.8 1435.26 1323.95 1435.21 1324.1 1435.15C1324.19 1435.12 1324.28 1435.08 1324.37 1435.05C1324.56 1434.98 1324.75 1434.9 1324.95 1434.83C1325 1434.81 1325.05 1434.8 1325.1 1434.78C1325.31 1434.7 1325.51 1434.63 1325.71 1434.56C1325.79 1434.54 1325.86 1434.51 1325.93 1434.49C1326.08 1434.44 1326.23 1434.39 1326.38 1434.34C1326.51 1434.3 1326.64 1434.26 1326.77 1434.22C1326.87 1434.18 1326.98 1434.15 1327.09 1434.12C1327.25 1434.07 1327.41 1434.02 1327.57 1433.97C1327.71 1433.93 1327.86 1433.89 1328.01 1433.85C1328.11 1433.82 1328.21 1433.79 1328.31 1433.76C1328.42 1433.73 1328.53 1433.7 1328.64 1433.67C1328.93 1433.59 1329.21 1433.52 1329.49 1433.45C1329.55 1433.43 1329.61 1433.42 1329.67 1433.41C1329.74 1433.39 1329.82 1433.37 1329.89 1433.35C1330 1433.32 1330.1 1433.3 1330.21 1433.28C1330.29 1433.26 1330.37 1433.24 1330.44 1433.22C1330.52 1433.21 1330.59 1433.19 1330.66 1433.17C1330.79 1433.15 1330.92 1433.12 1331.05 1433.09C1331.09 1433.08 1331.13 1433.07 1331.17 1433.06C1331.21 1433.06 1331.25 1433.05 1331.29 1433.04C1331.33 1433.03 1331.37 1433.02 1331.42 1433.01C1331.56 1432.98 1331.71 1432.96 1331.85 1432.93C1331.88 1432.92 1331.9 1432.92 1331.93 1432.91C1331.97 1432.9 1332.01 1432.9 1332.05 1432.89C1332.1 1432.88 1332.15 1432.87 1332.2 1432.86C1332.32 1432.84 1332.45 1432.82 1332.57 1432.79C1332.65 1432.78 1332.73 1432.77 1332.82 1432.75L1332.82 1432.75C1332.87 1432.74 1332.93 1432.73 1332.99 1432.72C1333.11 1432.7 1333.24 1432.68 1333.36 1432.66C1333.42 1432.65 1333.48 1432.64 1333.54 1432.63C1333.56 1432.63 1333.58 1432.63 1333.59 1432.62C1333.65 1432.62 1333.7 1432.61 1333.76 1432.6C1333.95 1432.57 1334.14 1432.54 1334.34 1432.52C1334.43 1432.5 1334.52 1432.49 1334.6 1432.48C1334.71 1432.47 1334.81 1432.45 1334.91 1432.44C1334.99 1432.43 1335.07 1432.42 1335.15 1432.41C1335.22 1432.4 1335.28 1432.4 1335.34 1432.39C1335.52 1432.37 1335.7 1432.35 1335.89 1432.33C1336 1432.32 1336.11 1432.31 1336.22 1432.3C1336.22 1432.3 1336.23 1432.3 1336.23 1432.3C1336.32 1432.29 1336.41 1432.28 1336.5 1432.27C1336.56 1432.26 1336.61 1432.26 1336.67 1432.26C1336.78 1432.25 1336.89 1432.24 1337 1432.23C1337.09 1432.22 1337.19 1432.21 1337.28 1432.21C1337.36 1432.2 1337.43 1432.2 1337.51 1432.19C1337.57 1432.19 1337.63 1432.18 1337.69 1432.18C1337.71 1432.18 1337.73 1432.18 1337.74 1432.18C1337.86 1432.17 1337.97 1432.16 1338.09 1432.16C1338.16 1432.15 1338.23 1432.15 1338.3 1432.15C1338.35 1432.14 1338.41 1432.14 1338.46 1432.14C1338.49 1432.14 1338.52 1432.14 1338.55 1432.13C1338.67 1432.13 1338.78 1432.12 1338.89 1432.12C1339.02 1432.12 1339.14 1432.11 1339.26 1432.11C1339.43 1432.1 1339.59 1432.1 1339.75 1432.1C1339.75 1432.1 1339.76 1432.1 1339.77 1432.1C1339.82 1432.09 1339.86 1432.09 1339.91 1432.09C1339.96 1432.09 1340.02 1432.09 1340.07 1432.09C1340.16 1432.09 1340.24 1432.09 1340.32 1432.09C1340.39 1432.09 1340.46 1432.09 1340.52 1432.09C1340.57 1432.09 1340.62 1432.09 1340.66 1432.09C1340.75 1432.09 1340.84 1432.09 1340.92 1432.09Z" fill="#101010"/>
<path d="M1422.6 1600.09L1309.6 1612.09L1278.6 1510.09L1340.6 1478.09L1425.6 1552.09L1422.6 1600.09Z" fill="#B54D0A"/>
<path d="M1340.6 1478.09L1425.6 1552.09L1330.6 1559.09L1309.6 1612.09L1278.6 1510.09L1330.1 1557.59L1340.6 1478.09Z" fill="#E59211"/>
<path d="M1278.6 1510.09L1340.6 1478.09L1330.1 1557.59L1278.6 1510.09Z" fill="#F7CD3D"/>
<path fill-rule="evenodd" clip-rule="evenodd" d="M549.981 1407.03C561.02 1400.8 574.154 1399.39 586.277 1403.17C598.591 1407 608.731 1415.83 614.223 1427.5L626.223 1453C626.239 1453.04 626.253 1453.07 626.269 1453.1L701.204 1611.96C707.925 1626.21 706.887 1642.91 698.451 1656.22C690.015 1669.53 675.356 1677.59 659.601 1677.59H596.601C596.582 1677.59 596.564 1677.59 596.545 1677.59C595.724 1677.59 594.901 1677.56 594.076 1677.52C593.985 1677.51 593.895 1677.51 593.804 1677.5C593.646 1677.49 593.489 1677.48 593.331 1677.47C593.249 1677.46 593.167 1677.46 593.085 1677.45C592.862 1677.43 592.638 1677.42 592.414 1677.4C592.228 1677.38 592.042 1677.36 591.857 1677.34C591.785 1677.34 591.713 1677.33 591.641 1677.32C591.428 1677.3 591.215 1677.27 591.002 1677.24C590.951 1677.24 590.9 1677.23 590.849 1677.23C590.282 1677.16 589.718 1677.07 589.156 1676.98C589.145 1676.98 589.134 1676.98 589.123 1676.98C588.497 1676.87 587.874 1676.76 587.254 1676.63L455.383 1649.66C455.33 1649.64 455.278 1649.63 455.226 1649.62C454.848 1649.54 454.47 1649.46 454.093 1649.37L350.093 1624.97C332.588 1620.86 319.081 1606.93 315.515 1589.31C311.949 1571.69 318.978 1553.6 333.509 1543.01L399.235 1495.11C399.379 1495.01 399.523 1494.9 399.668 1494.8C399.772 1494.72 399.877 1494.65 399.983 1494.57C400.107 1494.48 400.231 1494.4 400.357 1494.31C400.447 1494.25 400.537 1494.18 400.628 1494.12C400.799 1494 400.971 1493.89 401.144 1493.77C401.195 1493.74 401.247 1493.71 401.299 1493.67C401.486 1493.55 401.674 1493.43 401.862 1493.31C401.917 1493.27 401.972 1493.24 402.027 1493.2C402.191 1493.1 402.354 1493 402.519 1492.9C402.554 1492.87 402.59 1492.85 402.626 1492.83C402.669 1492.8 402.712 1492.78 402.755 1492.75C402.959 1492.63 403.164 1492.51 403.37 1492.38C403.399 1492.37 403.428 1492.35 403.456 1492.33L403.543 1492.28C403.581 1492.26 403.62 1492.24 403.658 1492.22L549.456 1407.33L549.981 1407.03Z" fill="#101010"/>
<path d="M659.6 1631.59H596.6L543.1 1561.59L584.6 1472.59L659.6 1631.59Z" fill="#B54D0A"/>
<path d="M543.1 1561.59L596.6 1631.59L464.6 1604.59L426.6 1532.09L543.1 1561.59Z" fill="#E59211"/>
<path d="M426.6 1532.09L572.6 1447.09L584.6 1472.59L543.1 1561.59L426.6 1532.09Z" fill="#F7CD3D"/>
<path d="M360.6 1580.19L426.6 1532.09L464.601 1604.59L360.6 1580.19Z" fill="#F7CD3D"/>
<path fill-rule="evenodd" clip-rule="evenodd" d="M1423.46 704.818C1502.19 700.58 1571.59 705.667 1625.82 722.481C1677.02 738.357 1718.87 766.19 1738.14 810.5C1750.56 834.278 1758.06 862.338 1759.32 891.054C1761.48 940.189 1739.79 991.576 1697.63 1044.69C1616 1147.52 1498.19 1238.29 1382.11 1311.12C1265.57 1384.23 1147.91 1441.04 1063.93 1475.2L1047.19 1445.35C831.59 1516.08 624.82 1547.81 464.847 1543.82C384.158 1541.81 312.723 1530.67 257.428 1508.99C203.089 1487.7 155.518 1452.42 140.668 1396.99C120.115 1320.29 154.698 1251.34 194.87 1202.05C235.05 1152.75 302.581 1110.16 340.097 1088.94C394.354 1050.07 458.605 1011.38 530.6 974.024V1143.58C514.062 1153.51 498.5 1163.38 483.999 1173.13C436.945 1204.77 402.498 1234.16 381.868 1259.23C359.798 1286.04 360.03 1299.6 361.575 1303.89C363.12 1308.19 371.572 1318.79 405.668 1325.4C437.537 1331.59 482.816 1332.31 539.24 1326.73C651.615 1315.61 801.355 1280.23 961.309 1222.7C1121.26 1165.17 1259.24 1097.08 1352.95 1034.08C1400.01 1002.44 1434.46 973.046 1455.09 947.98C1477.16 921.164 1476.92 907.612 1475.38 903.315L1475.21 902.893C1473.28 898.358 1464.31 888.214 1431.29 881.804C1399.42 875.619 1354.14 874.898 1297.71 880.479C1291.78 881.066 1285.74 881.721 1279.6 882.443V720.934C1330.64 712.649 1378.86 707.218 1423.46 704.818ZM1112.56 1404.05C1109.8 1405.06 1107.03 1406.06 1104.25 1407.06C1091.26 1411.74 1078.26 1416.29 1065.29 1420.71C1057.08 1425.6 1050.56 1429.67 1046.6 1432.59C1066.73 1424.4 1088.89 1414.86 1112.56 1404.05Z" fill="#101010"/>
<mask id="mask0_29_283" style="mask-type:alpha" maskUnits="userSpaceOnUse" x="176" y="733" width="1544" height="767">
<path fill-rule="evenodd" clip-rule="evenodd" d="M859.591 864.589C1282.15 712.614 1660.49 682.427 1713.02 828.483C1765.55 974.539 1516.66 1226.86 1094.1 1378.83C671.537 1530.81 259.6 1548.09 182.78 1378.83C130.251 1232.78 437.027 1016.56 859.591 864.589ZM1503.61 893.162C1474.35 811.797 1188.65 840.056 865.492 956.28C542.333 1072.5 304.083 1232.68 333.345 1314.05C362.608 1395.41 648.303 1367.15 971.462 1250.93C1294.62 1134.7 1532.87 974.526 1503.61 893.162Z" fill="#B54D0A"/>
</mask>
<g mask="url(#mask0_29_283)">
<path d="M1730.6 1716.09V683.088L1279.6 682.162V868.588L530.6 1136.09V680.625L164.6 679.873V1712.87L1730.6 1716.09Z" fill="#B54D0A"/>
</g>
<path d="M529.1 1178.09C508.433 1192.76 464.39 1231.59 467.1 1255.59C470.6 1286.59 678.1 1273.09 821.6 1248.59C636.6 1322.59 418.1 1332.59 415.1 1276.09C412.502 1227.16 491.1 1191.42 529.1 1178.09Z" fill="#DD730E"/>
<path d="M1312.1 907.588C1335.6 903.088 1380.28 901.889 1388.1 931.088C1397.88 967.588 1331.1 1026.59 1210.6 1090.59C1090.1 1154.59 945.1 1197.09 855.6 1210.09C855.6 1210.09 913.6 1187.09 1016.6 1145.09C1254.6 1043.09 1348.6 964.088 1348.6 931.088C1349.1 920.088 1326.1 909.588 1312.1 907.588Z" fill="#DD730E"/>
<path d="M185.1 1385.09C155.197 1273.49 281.641 1170.26 348.6 1132.59C313.434 1160.58 252.7 1234.26 291.1 1305.09C339.1 1393.62 501.1 1417.59 788.6 1354.09C1018.6 1303.29 1329.77 1143.42 1458.1 1058.09C1703.1 890.089 1559.6 759.089 1464.6 752.589C1589.6 752.589 1815.6 822.089 1661.6 1016.09C1507.6 1210.09 1210.1 1366.09 1046.6 1432.59C1067.6 1417.09 1161.1 1369.09 1193.6 1339.09L1040.6 1399.09C611.6 1541.59 222.479 1524.59 185.1 1385.09Z" fill="#DD730E"/>
<path d="M467.601 1096.09C387.41 1146.59 224.601 1238.53 256.101 1356.09C279.359 1442.89 479.125 1463.92 576.101 1463.59C467.359 1486.59 233.932 1473.09 206.601 1371.09C171.981 1241.89 366.176 1133.92 467.601 1096.09Z" fill="#F5B31F"/>
<path d="M1304.1 1167.59C1246.93 1212.76 1098.3 1313.49 961.101 1355.09C789.601 1407.09 642.6 1434.09 497.101 1427.59C589.934 1415.59 811.101 1377.39 953.101 1320.59C1095.1 1263.79 1246.27 1194.92 1304.1 1167.59Z" fill="#F5B31F"/>
<path d="M1296.91 764.458C1422.36 744.399 1674.22 739.291 1684.6 878.589C1697.55 1052.41 1424.74 1181.58 1282.76 1248.8L1281.1 1249.59C1399.27 1189.59 1633.8 1033.89 1626.6 891.089C1620.24 764.908 1404.36 747.344 1296.91 764.458Z" fill="#F5B31F"/>
<path d="M398.601 1401.09C405.228 1401.09 410.601 1406.46 410.601 1413.09C410.6 1419.72 405.228 1425.09 398.601 1425.09C391.973 1425.09 386.601 1419.72 386.601 1413.09C386.601 1406.46 391.973 1401.09 398.601 1401.09Z" fill="#F5B31F"/>
<path d="M337.601 1373.09C346.989 1373.09 354.601 1380.7 354.601 1390.09C354.6 1399.48 346.989 1407.09 337.601 1407.09C328.212 1407.09 320.601 1399.48 320.601 1390.09C320.601 1380.7 328.212 1373.09 337.601 1373.09Z" fill="#F5B31F"/>
<path d="M1401.6 1093.09C1408.23 1093.09 1413.6 1098.46 1413.6 1105.09C1413.6 1111.72 1408.23 1117.09 1401.6 1117.09C1394.97 1117.09 1389.6 1111.72 1389.6 1105.09C1389.6 1098.46 1394.97 1093.09 1401.6 1093.09Z" fill="#F5B31F"/>
<path d="M1486.6 1031.09C1494.88 1031.09 1501.6 1037.8 1501.6 1046.09C1501.6 1054.37 1494.88 1061.09 1486.6 1061.09C1478.32 1061.09 1471.6 1054.37 1471.6 1046.09C1471.6 1037.8 1478.32 1031.09 1486.6 1031.09Z" fill="#F5B31F"/>
<path d="M1550.6 940.089C1561.09 940.089 1569.6 948.595 1569.6 959.089C1569.6 969.582 1561.09 978.089 1550.6 978.089C1540.11 978.089 1531.6 969.582 1531.6 959.089C1531.6 948.595 1540.11 940.089 1550.6 940.089Z" fill="#F5B31F"/>
<path d="M1478.6 802.089C1484.12 802.089 1488.6 806.566 1488.6 812.089C1488.6 817.611 1484.12 822.089 1478.6 822.089C1473.08 822.089 1468.6 817.611 1468.6 812.089C1468.6 806.566 1473.08 802.089 1478.6 802.089Z" fill="#F5B31F"/>
<path d="M1386.6 791.089C1393.23 791.089 1398.6 796.461 1398.6 803.089C1398.6 809.716 1393.23 815.089 1386.6 815.089C1379.97 815.089 1374.6 809.716 1374.6 803.089C1374.6 796.461 1379.97 791.089 1386.6 791.089Z" fill="#F5B31F"/>
<g opacity="0.8">
<circle cx="337.6" cy="1390.09" r="7" fill="#FBF0C1"/>
<circle cx="398.6" cy="1413.09" r="5" fill="#FBF0C1"/>
<circle cx="1401.6" cy="1105.09" r="5" fill="#FBF0C1"/>
<circle cx="1486.6" cy="1046.09" r="6" fill="#FBF0C1"/>
<circle cx="1550.6" cy="959.089" r="8" fill="#FBF0C1"/>
<circle cx="1478.6" cy="812.089" r="3" fill="#FBF0C1"/>
<circle cx="1386.6" cy="803.089" r="4" fill="#FBF0C1"/>
</g>
<path fill-rule="evenodd" clip-rule="evenodd" d="M496.618 301.098C512.89 300.751 527.744 308.981 536.236 322.119C541.697 319.488 547.152 316.867 552.6 314.262C552.6 329.849 552.144 344.452 551.367 358.355C552.07 358.756 552.765 359.175 553.451 359.615C566.677 368.106 574.652 382.762 574.599 398.478L574.099 547.242C574.039 565.24 563.487 581.55 547.095 588.982C516.721 602.755 477.059 624.155 439.404 650.06C436.055 652.483 432.767 654.903 429.544 657.322C385.666 690.246 356.136 720.839 340.093 747.442C324.483 773.327 323.821 791.24 328.774 804.711C329.171 805.789 329.63 806.894 330.156 808.023C339.619 825.718 364.017 845.047 404.659 860.256C423.007 867.122 441.934 872.083 459.64 875.337C480.242 878.309 502.839 879.646 527.159 878.884C539.603 878.494 551.674 883.164 560.614 891.828C569.554 900.492 574.6 912.411 574.6 924.861V964.088C574.6 986.749 558.096 1006.03 535.708 1009.53C410.209 1029.16 304.423 1025.87 222.599 1000.72C183.81 988.799 149.762 971.677 121.826 949.451C96.5 930.134 75.2321 905.633 61.0613 874.715C57.8983 868.248 55.0441 861.57 52.5115 854.683C44.1938 832.065 40.5692 809.144 40.9109 786.265C27.439 609.663 137.344 478.839 194.238 431.096C219.288 409.313 262.575 378.173 314.601 351.92C366.564 325.699 430.875 302.502 496.618 301.098ZM483.797 347.756C375.773 355.797 266.62 429.002 224.099 466.088C195.573 489.946 152.684 536.888 122.244 600.714C147.466 570.439 177.751 540.763 211.936 511.984C279.676 454.957 380.059 399.324 483.797 347.756Z" fill="#101010"/>
<path fill-rule="evenodd" clip-rule="evenodd" d="M1499.49 9.16194C1601.79 3.35601 1671.83 34.2734 1707.02 90.7664C1740.33 144.238 1733.92 208.012 1711.91 250.32C1704.96 263.673 1692.09 272.524 1677.7 274.612C1683.12 292.798 1686.04 311.644 1686.58 330.786C1686.6 331.359 1686.6 331.933 1686.6 332.506C1685.8 419.831 1642.35 494.702 1579.64 556.037C1517.12 617.19 1432.63 667.904 1341.35 708.579C1320.24 717.985 1280.1 735.368 1280.1 735.368L1275.1 533.766C1310.6 496.589 1424.1 430.589 1410.6 386.089C1397.1 341.589 1292.47 349.993 1262.6 349.589L1195.21 285.271C1187.22 286.647 1179.11 288.136 1170.91 289.737C1156.27 292.592 1141.16 288.174 1130.36 277.885L1044.86 196.385C1033.38 185.437 1028.34 169.343 1031.55 153.804C1034.75 138.264 1045.73 125.471 1060.61 119.956C1224.23 59.3028 1390.71 15.3361 1499.49 9.16194ZM1671.1 229.088C1703.1 167.588 1687.1 44.588 1502.1 55.0877L1499.7 55.2293C1434.52 59.2542 1345.6 77.8122 1247.87 106.265C1274.28 104.172 1299.85 103.009 1324.46 102.806C1368.95 102.44 1411.12 105.203 1449.89 111.606C1591.04 101.501 1655.76 154.711 1671.1 229.088Z" fill="#101010"/>
<mask id="mask1_29_283" style="mask-type:alpha" maskUnits="userSpaceOnUse" x="86" y="148" width="1553" height="829">
<path d="M1627.66 275.427C1563.07 99.7937 1176.21 115.015 753.162 270.588C330.118 426.161 31.0956 663.174 95.684 838.807C135.945 948.288 285.6 1002.09 528.6 964.088V924.861C401.546 928.846 307.904 881.238 285.6 820.588C240.736 698.588 471.019 541.721 794.617 422.719C1118.21 303.717 1411.66 290.088 1443.1 375.588C1478.77 472.588 1060.6 713.588 787.1 793.588C900.1 791.588 1261.6 755.588 1546.81 520.088C1635.6 438.588 1653.75 346.354 1627.66 275.427Z" fill="#B54D0A"/>
</mask>
<g mask="url(#mask1_29_283)">
<path d="M1675.6 1022.09V109.087L1051.1 137.82L1280 360.588L1279.6 435.087L528.6 727.587V109.087H58.6001V1022.09H1675.6Z" fill="#B54D0A"/>
</g>
<path d="M160.926 483.592C162.217 483.624 163.497 483.848 164.724 484.259L160.876 495.764C164.656 484.463 164.723 484.263 164.725 484.26H164.726L164.735 484.263C164.739 484.264 164.744 484.266 164.748 484.268C164.756 484.27 164.766 484.273 164.776 484.276C164.796 484.283 164.818 484.29 164.843 484.299C164.891 484.316 164.951 484.336 165.018 484.36C165.149 484.407 165.337 484.475 165.555 484.56C165.759 484.638 166.082 484.768 166.456 484.938C166.711 485.055 167.524 485.427 168.443 486.039C172.582 488.794 174.787 493.669 174.123 498.597C173.459 503.524 170.042 507.642 165.321 509.203C149.468 514.446 131.645 528.985 115.088 552.215C98.7103 575.192 84.3949 605.551 75.0652 640.384C64.6715 679.19 62.4229 716.231 66.78 746.042C67.2255 749.091 66.5739 752.199 64.9412 754.812C63.7492 756.719 60.978 760.497 55.8367 762.04L55.8357 762.041C47.8653 764.432 41.5068 759.838 39.0593 757.792C35.8201 755.084 32.9495 751.431 30.4802 747.517C25.4535 739.548 20.7208 728.308 17.4578 714.678C10.8908 687.247 9.97428 648.893 25.8826 605.146L25.9851 604.873C44.9732 556.084 73.4332 525.857 99.6658 507.795C125.406 490.072 149.471 483.781 160.372 483.59L160.926 483.592Z" fill="#DD730E" stroke="#101010" stroke-width="26" stroke-linejoin="round"/>
<path d="M1504.42 300.088C1598.92 492.088 1053.93 698.921 781.6 794.588C1081.6 785.088 1638.01 616.854 1640.6 332.088C1637.6 226.088 1544.1 132.088 1299.1 139.588C1547.1 71.0883 1651.1 132.088 1671.1 229.088C1703.1 167.588 1687.1 44.5882 1502.1 55.0882C1400.24 60.8695 1238.89 102.927 1076.6 163.088L1162.1 244.588C1318.12 214.158 1451.6 219.588 1504.42 300.088Z" fill="#DD730E"/>
<path d="M282.6 812.588C251.4 703.388 433.267 590.088 528.1 547.088L528.6 398.325C324.986 492.374 214.439 588.572 154.6 658.588C166.2 606.988 226.433 536.088 255.1 507.088C344.6 412.088 436.6 382.588 497.6 347.088C385.2 349.488 268.433 427.422 224.1 466.088C169.1 512.088 60.7003 643.888 91.1003 817.088C121.5 990.288 397.1 984.422 528.1 958.088V925.088C459.267 933.088 306.6 896.588 282.6 812.588Z" fill="#DD730E"/>
<path d="M1176.6 770.088C1086.6 809.288 926.1 839.755 857.1 850.088C921.6 851.922 1075.8 846.488 1176.6 810.088C1277.4 773.688 1369.93 695.255 1403.6 660.588C1365.43 680.755 1266.6 730.888 1176.6 770.088Z" fill="#DD730E"/>
<path d="M1346.6 406.588C1349 432.988 1313.6 474.255 1295.6 491.588C1328.6 481.088 1391.1 426.088 1381.1 391.588C1373.1 363.988 1324.43 365.422 1301.1 369.588C1315.27 370.922 1344.2 380.188 1346.6 406.588Z" fill="#DD730E"/>
<path d="M1222.23 24.0369C1245.83 14.4902 1264.79 11.8642 1278.84 13.4167C1285.83 14.1888 1292.07 16.0515 1297.04 19.0583C1301.51 21.7622 1306.71 26.5667 1307.9 33.7712L1308 34.4763L1308.11 35.3728C1308.69 40.2049 1309.45 50.1542 1301.53 59.6609C1293.88 68.8305 1280.14 75.1934 1258.56 79.3533C1218.19 87.1359 1182.08 100.291 1157 109.32C1144.98 113.648 1133.96 117.883 1126.33 120.296C1122.65 121.461 1118.52 122.617 1114.92 122.912C1113.27 123.046 1110.04 123.178 1106.65 121.806C1104.75 121.039 1102.54 119.69 1100.71 117.403C1098.85 115.063 1097.95 112.436 1097.68 110.024C1097.16 105.379 1099.24 102.001 1099.65 101.332C1100.39 100.091 1101.22 99.1154 1101.76 98.5066C1102.9 97.2353 1104.27 95.9915 1105.55 94.8972C1108.19 92.6339 1111.8 89.8749 1115.96 86.8601C1124.35 80.7787 1135.82 73.0576 1148.33 65.0876C1173.07 49.3214 1203.21 31.7291 1222.23 24.0369Z" fill="#DD730E" stroke="#101010" stroke-width="26"/>
<path d="M1655.12 418.122C1659.73 415.184 1665.69 415.45 1670.03 418.786C1695.52 438.409 1705.48 462.836 1701.5 488.844C1697.72 513.54 1681.69 537.474 1660.54 558.6C1618.03 601.038 1549.21 637.724 1487.68 652.718C1481.34 654.262 1474.85 650.876 1472.48 644.8C1470.12 638.725 1472.62 631.839 1478.33 628.698C1510.94 610.765 1558.74 578.896 1595.93 541.918C1614.53 523.429 1630.02 504.115 1639.76 485.069C1649.49 466.045 1653.04 448.209 1649.41 431.915C1648.22 426.575 1650.5 421.061 1655.12 418.122Z" fill="#DD730E" stroke="#101010" stroke-width="26" stroke-linejoin="round"/>
<path d="M528.6 647.088C439.4 689.088 415.433 751.922 414.6 778.088C452.6 729.688 506.433 694.255 528.6 682.588V647.088Z" fill="#DD730E"/>
<path d="M1530.6 341.589C1530.6 460.789 1330.27 585.088 1246.6 628.588C1364.87 579.78 1587.1 491.85 1587.1 341.589C1587.1 181.089 1302.6 166.589 1145.1 215.089C1271.1 215.089 1530.6 192.589 1530.6 341.589Z" fill="#F5B31F"/>
<path d="M116.6 788.088C116.6 656.488 346.934 533.588 462.1 488.588C238.9 594.188 178.1 732.255 175.6 788.088C175.6 951.088 451.6 927.088 451.6 927.088C333.6 943.088 116.6 952.588 116.6 788.088Z" fill="#F5B31F"/>
<path d="M1623.6 105.588C1578 81.1885 1504.6 80.0885 1473.6 82.5885C1502 71.3885 1535.6 68.5884 1557.1 70.5884C1578.6 72.5885 1610 81.9885 1623.6 105.588Z" fill="#F5B31F"/>
<circle cx="210.6" cy="813.088" r="11" fill="#F5B31F"/>
<circle cx="255.6" cy="723.088" r="18" fill="#F5B31F"/>
<circle cx="317.6" cy="665.088" r="8" fill="#F5B31F"/>
<circle cx="338.6" cy="613.088" r="17" fill="#F5B31F"/>
<circle cx="455.6" cy="550.088" r="10" fill="#F5B31F"/>
<circle cx="1334.6" cy="276.088" r="11" fill="#F5B31F"/>
<circle cx="1419.6" cy="278.088" r="16" fill="#F5B31F"/>
<circle cx="1483.6" cy="344.088" r="18" fill="#F5B31F"/>
<circle cx="1151.6" cy="785.088" r="17" fill="#F5B31F"/>
</svg>
